<svg xmlns="http://www.w3.org/2000/svg" width="600" height="600" viewBox="0 0 600 600">
  <rect x="125.82" y="88.36" width="334.86" height="428.39" style="fill:#fff;stroke:#438bca;stroke-miterlimit:10"/>
  <path d="M450,0H150A150,150,0,0,0,0,150V450A150,150,0,0,0,150,600H450A150,150,0,0,0,600,450V150A150,150,0,0,0,450,0ZM264,378.81a107.8,107.8,0,0,0,120.63,24,24.22,24.22,0,0,1,26.3,4.84l32.61,31.73a30.06,30.06,0,0,1,8.85,26.29,29.46,29.46,0,0,1-15.81,22.08,209.13,209.13,0,0,1-304-194.46c4.1-106.92,91-195,197.79-200.57a209.55,209.55,0,0,1,109.89,24.5,29.61,29.61,0,0,1,15.4,22.13,30,30,0,0,1-8.79,25.93l-34.95,34.28a24.57,24.57,0,0,1-26.84,4.7A108.16,108.16,0,0,0,264,378.81Z" style="fill:#438bca"/>
  <rect width="150.76" height="144.89" style="fill:#438bca"/>
  <rect x="460.68" y="450.16" width="139.32" height="149.84" style="fill:#438bca"/>
</svg>